<?xml version="1.0" standalone="no"?>
<!DOCTYPE svg PUBLIC "-//W3C//DTD SVG 20010904//EN"
 "http://www.w3.org/TR/2001/REC-SVG-20010904/DTD/svg10.dtd">
<svg version="1.0" xmlns="http://www.w3.org/2000/svg"
 width="152.000000pt" height="167.000000pt" viewBox="0 0 152.000000 167.000000"
 preserveAspectRatio="xMidYMid meet">

<g transform="translate(0.000000,167.000000) scale(0.100000,-0.100000)"
fill="#000000" stroke="none">
<path d="M130 1100 l0 -470 240 0 240 0 0 95 0 95 125 0 c71 0 125 -4 125 -9
0 -24 -23 -65 -45 -83 -19 -15 -25 -29 -25 -59 l0 -39 135 0 135 0 0 39 c0 29
-7 46 -30 69 -16 18 -30 36 -30 41 0 5 -3 16 -6 25 -5 14 6 16 85 16 80 0 91
-2 89 -17 -3 -37 3 -48 29 -60 17 -8 30 -9 38 -3 7 5 15 7 18 4 9 -9 28 43 21
60 -4 9 7 15 36 19 81 11 80 6 80 302 0 260 0 262 -23 283 -23 22 -27 22 -390
22 l-366 0 -3 68 -3 67 -237 3 -238 2 0 -470z m430 0 l0 -430 -192 2 -193 3
-3 415 c-1 228 0 421 3 427 3 10 52 13 195 13 l190 0 0 -430z m771 280 c18
-10 19 -23 19 -205 l0 -195 -370 0 -370 0 0 205 0 205 351 0 c222 0 357 -4
370 -10z m19 -462 c0 -13 -4 -28 -8 -35 -7 -12 -154 -15 -579 -14 l-153 1 0
35 0 35 370 0 370 0 0 -22z m-400 -117 c0 -11 3 -26 6 -35 5 -13 -1 -16 -30
-16 -35 0 -36 1 -30 28 9 38 13 42 35 42 12 0 19 -7 19 -19z m290 -1 c0 -12
-28 -25 -36 -17 -9 9 6 27 22 27 8 0 14 -5 14 -10z m-222 -117 c3 -10 -19 -13
-87 -13 -83 0 -111 7 -94 24 13 12 176 2 181 -11z"/>
<path d="M207 1474 c-12 -12 -8 -119 5 -132 19 -19 302 -17 317 2 7 9 11 38 9
73 l-3 58 -161 3 c-88 1 -163 -1 -167 -4z m283 -64 l0 -30 -123 0 -124 0 5 30
4 30 119 0 119 0 0 -30z"/>
<path d="M205 1209 c-16 -24 17 -29 171 -27 133 3 159 5 159 18 0 13 -26 15
-162 18 -110 2 -164 -1 -168 -9z"/>
<path d="M329 897 c-25 -19 -41 -56 -34 -78 9 -29 45 -59 71 -59 37 0 74 37
74 74 0 58 -67 97 -111 63z m66 -62 c0 -22 -31 -33 -47 -17 -17 17 -1 44 24
40 15 -2 23 -10 23 -23z"/>
<path d="M892 918 c-8 -8 -9 -15 -1 -25 23 -27 84 -8 72 23 -6 17 -55 18 -71
2z"/>
<path d="M1310 781 c-8 -6 -17 -8 -21 -6 -10 7 -19 -48 -12 -74 3 -12 1 -21
-6 -21 -6 0 -11 6 -11 14 0 8 -7 16 -15 20 -20 7 -45 -3 -45 -19 0 -7 -5 -15
-10 -17 -12 -4 25 -48 40 -48 5 0 21 12 35 27 23 25 27 27 47 14 16 -10 23
-10 26 -2 2 6 9 11 15 11 17 0 39 51 28 64 -5 6 -10 16 -10 21 -1 6 -5 10 -10
10 -5 0 -13 3 -17 8 -9 9 -16 9 -34 -2z m33 -56 c1 -5 -6 -11 -15 -13 -11 -2
-18 3 -18 13 0 17 30 18 33 0z m-103 -50 c0 -8 -4 -15 -10 -15 -5 0 -10 7 -10
15 0 8 5 15 10 15 6 0 10 -7 10 -15z"/>
<path d="M140 478 c-12 -46 -25 -91 -27 -100 -4 -14 1 -18 20 -18 16 0 26 7
30 20 4 16 14 20 46 20 34 0 41 -3 41 -20 0 -15 7 -20 25 -20 14 0 25 3 25 7
0 4 -12 49 -26 100 l-27 93 -42 0 -42 0 -23 -82z m85 -5 c6 -31 5 -33 -19 -33
-30 0 -30 1 -15 54 12 43 21 37 34 -21z"/>
<path d="M420 480 l0 -80 -30 0 c-25 0 -30 4 -30 24 0 19 -5 24 -20 23 -11 -1
-21 -6 -22 -12 -4 -33 -3 -42 10 -57 11 -13 30 -18 62 -18 68 0 80 17 80 118
0 81 0 82 -25 82 -25 0 -25 -1 -25 -80z"/>
<path d="M510 477 c0 -104 10 -117 92 -117 77 0 88 14 88 118 0 81 0 82 -25
82 -25 0 -25 -1 -25 -80 l0 -80 -40 0 -40 0 0 80 c0 79 0 80 -25 80 -25 0 -25
-1 -25 -83z"/>
<path d="M728 460 l-3 -100 66 0 c87 0 109 21 109 101 0 77 -24 99 -107 99
l-62 0 -3 -100z m117 0 l0 -55 -37 -3 -38 -3 0 61 0 61 38 -3 37 -3 0 -55z"/>
<path d="M945 473 c-14 -48 -28 -94 -30 -100 -3 -8 5 -13 21 -13 17 0 28 7 31
20 4 16 14 20 43 20 29 0 39 -4 43 -20 3 -14 14 -20 31 -20 14 0 26 1 26 3 0
1 -13 45 -29 97 l-29 95 -40 3 -40 3 -27 -88z m79 23 c3 -13 9 -31 12 -40 5
-12 -1 -16 -24 -16 l-30 0 10 40 c12 45 23 51 32 16z"/>
<path d="M1130 460 l0 -100 25 0 c21 0 25 5 25 28 0 15 5 33 12 40 9 9 17 3
33 -26 15 -26 28 -38 48 -40 l27 -3 -34 57 -35 57 20 28 c11 16 24 31 29 34
18 11 10 25 -14 25 -16 0 -31 -12 -47 -35 -30 -44 -39 -44 -39 0 0 31 -3 35
-25 35 l-25 0 0 -100z"/>
<path d="M1310 546 c0 -8 4 -16 9 -18 5 -1 11 -31 14 -65 5 -51 3 -63 -8 -63
-8 0 -15 -9 -15 -20 0 -17 7 -20 45 -20 38 0 45 3 45 20 0 11 -4 20 -10 20 -6
0 -10 26 -10 59 0 33 5 63 10 66 6 3 10 13 10 21 0 10 -12 14 -45 14 -32 0
-45 -4 -45 -14z"/>
<path d="M129 254 c-18 -22 0 -48 35 -52 37 -5 30 -35 -9 -43 l-30 -7 31 -1
c39 -1 63 23 47 47 -6 10 -16 18 -24 18 -8 1 -20 2 -26 3 -7 0 -13 8 -13 16 0
10 10 15 30 15 17 0 30 5 30 10 0 16 -56 11 -71 -6z"/>
<path d="M307 263 c-4 -3 -7 -30 -7 -60 l0 -53 43 2 c36 1 38 2 10 5 -25 3
-33 9 -33 24 0 14 7 19 25 19 14 0 25 5 25 10 0 6 -11 10 -25 10 -16 0 -25 6
-25 15 0 10 10 15 30 15 17 0 30 5 30 10 0 11 -63 14 -73 3z"/>
<path d="M481 208 c1 -41 3 -54 8 -39 9 34 29 37 42 7 7 -14 16 -26 21 -26 5
0 4 9 -2 19 -7 14 -7 27 1 45 15 33 -2 56 -42 56 -29 0 -29 0 -28 -62z m59 22
c0 -15 -7 -20 -25 -20 -18 0 -25 5 -25 20 0 15 7 20 25 20 18 0 25 -5 25 -20z"/>
<path d="M651 261 c-2 -24 33 -111 45 -111 11 0 49 108 41 117 -3 2 -13 -20
-23 -49 l-17 -53 -14 35 c-23 60 -32 76 -32 61z"/>
<path d="M835 210 c0 -47 3 -60 15 -60 12 0 15 13 15 60 0 47 -3 60 -15 60
-12 0 -15 -13 -15 -60z"/>
<path d="M982 261 c-9 -5 -12 -25 -10 -57 3 -46 5 -49 32 -52 16 -2 33 1 38 6
7 7 -1 10 -23 9 -33 -2 -34 -1 -37 42 l-3 43 36 -4 c20 -2 34 0 32 6 -4 13
-49 18 -65 7z"/>
<path d="M1150 210 l0 -60 38 2 c36 1 36 1 5 5 -25 3 -33 9 -33 24 0 14 7 19
25 19 14 0 25 5 25 10 0 6 -11 10 -25 10 -16 0 -25 6 -25 15 0 10 10 15 30 15
17 0 30 5 30 10 0 6 -16 10 -35 10 l-35 0 0 -60z"/>
<path d="M1321 248 c-11 -29 4 -48 35 -48 17 0 24 -6 24 -19 0 -15 -8 -21 -32
-24 -32 -4 -32 -4 5 -5 27 -2 39 3 44 14 9 24 -10 49 -41 52 -37 5 -34 32 4
32 17 0 30 5 30 10 0 6 -14 10 -30 10 -23 0 -33 -6 -39 -22z"/>
</g>
</svg>
